<?xml version="1.0" encoding="UTF-8"?>
<svg width="24px" height="24px" viewBox="0 0 24 24" version="1.1" xmlns="http://www.w3.org/2000/svg" xmlns:xlink="http://www.w3.org/1999/xlink">
    <title>Icon/cam_none</title>
    <g id="Icon/cam_none" stroke="none" stroke-width="1" fill="none" fill-rule="evenodd">
        <path d="M15.2447962,13.2447962 C16.9036687,11.5859237 19.5963313,11.5859237 21.2552038,13.2447962 C22.9140763,14.9036687 22.9140763,17.5963313 21.2552038,19.2552038 C19.5963313,20.9140763 16.9036687,20.9140763 15.2447962,19.2552038 C13.5859237,17.5963313 13.5859237,14.9036687 15.2447962,13.2447962 Z M16.795265,14.10351 L16.05351,14.845265 L17.5384343,16.3301893 L16.0549242,17.8136993 L16.7973864,18.5561614 L18.2808964,17.0726514 L19.7658206,18.5575756 L20.5075756,17.8158206 L19.0226514,16.3308964 L20.5061614,14.8473864 L19.7636993,14.1049242 L18.2801893,15.5884343 L16.795265,14.10351 Z M16,5 C16.5107143,5 16.9352041,5.3880102 16.9932398,5.88380102 L17,6 L17,9.5 L21,5.5 L21.0006243,11.7773834 C20.200723,11.2844018 19.2585743,11 18.25,11 C17.0231174,11 15.8945286,11.4208453 15.0007168,12.1260525 L15,7 L5,7 L5,15 L13.149646,15.0003146 C13.0518494,15.4008315 13,15.8193607 13,16.25 C13,16.5049197 13.0181687,16.7555959 13.0532818,17.0008043 L4,17 C3.48928571,17 3.06479592,16.6119898 3.0067602,16.116199 L3,16 L3,6 C3,5.48928571 3.3880102,5.06479592 3.88380102,5.0067602 L4,5 L16,5 Z" id="Combined-Shape" fill="#000000"></path>
    </g>
</svg>