<?xml version="1.0" encoding="UTF-8"?>
<svg width="24px" height="24px" viewBox="0 0 24 24" version="1.1" xmlns="http://www.w3.org/2000/svg" xmlns:xlink="http://www.w3.org/1999/xlink">
    <title>Icon/cam_mute</title>
    <g id="Icon/cam_mute" stroke="none" stroke-width="1" fill="none" fill-rule="evenodd">
        <g id="videocam_off-24px">
            <polygon id="Path" points="0 0 24 0 24 24 0 24"></polygon>
            <path d="M9.56,8 L7.56,6 L3.41,1.86 L2,3.27 L4.73,6 L4,6 C3.45,6 3,6.45 3,7 L3,17 C3,17.55 3.45,18 4,18 L16,18 C16.21,18 16.39,17.92 16.55,17.82 L19.73,21 L21.14,19.59 L12.28,10.73 L9.56,8 Z M5,16 L5,8 L6.73,8 L14.73,16 L5,16 Z M15,8 L15,10.61 L21,16.61 L21,6.5 L17,10.5 L17,7 C17,6.45 16.55,6 16,6 L10.39,6 L12.39,8 L15,8 Z" id="Shape" fill="#000000"></path>
        </g>
    </g>
</svg>