<?xml version="1.0" encoding="UTF-8"?>
<svg width="24px" height="24px" viewBox="0 0 24 24" version="1.1" xmlns="http://www.w3.org/2000/svg" xmlns:xlink="http://www.w3.org/1999/xlink">
    <title>Icon/check_off</title>
    <g id="Icon/check_off" stroke="none" stroke-width="1" fill="none" fill-rule="evenodd">
        <g id="radio_button_unchecked-24px">
            <polygon id="Path" points="0 0 24 0 24 24 0 24"></polygon>
            <path d="M12,2 C17.52,2 22,6.48 22,12 C22,17.52 17.52,22 12,22 C6.48,22 2,17.52 2,12 C2,6.48 6.48,2 12,2 Z M12,3 C7.0275,3 3,7.0275 3,12 C3,16.9725 7.0275,21 12,21 C16.9725,21 21,16.9725 21,12 C21,7.0275 16.9725,3 12,3 Z" id="Combined-Shape" fill="#000000"></path>
        </g>
    </g>
</svg>