<?xml version="1.0" encoding="UTF-8"?>
<svg width="24px" height="24px" viewBox="0 0 24 24" version="1.1" xmlns="http://www.w3.org/2000/svg" xmlns:xlink="http://www.w3.org/1999/xlink">
    <title>Icon/copy</title>
    <g id="Icon/copy" stroke="none" stroke-width="1" fill="none" fill-rule="evenodd">
        <g id="content_copy-24px">
            <polygon id="Path" points="0 0 24 0 24 24 0 24"></polygon>
            <path d="M16.2631579,1.57 L4.89473684,1.57 C3.85263158,1.57 3,2.42263158 3,3.46473684 L3,16.7278947 L4.89473684,16.7278947 L4.89473684,3.46473684 L16.2631579,3.46473684 L16.2631579,1.57 Z M19.1052632,5.35947368 L8.68421053,5.35947368 C7.64210526,5.35947368 6.78947368,6.21210526 6.78947368,7.25421053 L6.78947368,20.5173684 C6.78947368,21.5594737 7.64210526,22.4121053 8.68421053,22.4121053 L19.1052632,22.4121053 C20.1473684,22.4121053 21,21.5594737 21,20.5173684 L21,7.25421053 C21,6.21210526 20.1473684,5.35947368 19.1052632,5.35947368 Z M19.1052632,20.5173684 L8.68421053,20.5173684 L8.68421053,7.25421053 L19.1052632,7.25421053 L19.1052632,20.5173684 Z" id="Shape" fill="#000000"></path>
        </g>
    </g>
</svg>