<?xml version="1.0" encoding="UTF-8"?>
<svg width="152px" height="90px" viewBox="0 0 152 90" version="1.1" xmlns="http://www.w3.org/2000/svg" xmlns:xlink="http://www.w3.org/1999/xlink">
    <title>grid view</title>
    <g id="Guideline" stroke="none" stroke-width="1" fill="none" fill-rule="evenodd">
        <g id="04_00_02_view-switch" transform="translate(-1022.000000, -500.000000)" fill="#747474">
            <path d="M1050,574 L1050,590 L1022,590 L1022,574 L1050,574 Z M1081,574 L1081,590 L1053,590 L1053,574 L1081,574 Z M1112,574 L1112,590 L1084,590 L1084,574 L1112,574 Z M1143,574 L1143,590 L1115,590 L1115,574 L1143,574 Z M1174,574 L1174,590 L1146,590 L1146,574 L1174,574 Z M1050,556 L1050,571 L1022,571 L1022,556 L1050,556 Z M1081,556 L1081,571 L1053,571 L1053,556 L1081,556 Z M1112,556 L1112,571 L1084,571 L1084,556 L1112,556 Z M1143,556 L1143,571 L1115,571 L1115,556 L1143,556 Z M1174,556 L1174,571 L1146,571 L1146,556 L1174,556 Z M1050,537 L1050,553 L1022,553 L1022,537 L1050,537 Z M1081,537 L1081,553 L1053,553 L1053,537 L1081,537 Z M1112,537 L1112,553 L1084,553 L1084,537 L1112,537 Z M1143,537 L1143,553 L1115,553 L1115,537 L1143,537 Z M1174,537 L1174,553 L1146,553 L1146,537 L1174,537 Z M1050,519 L1050,534 L1022,534 L1022,519 L1050,519 Z M1081,519 L1081,534 L1053,534 L1053,519 L1081,519 Z M1112,519 L1112,534 L1084,534 L1084,519 L1112,519 Z M1143,519 L1143,534 L1115,534 L1115,519 L1143,519 Z M1174,519 L1174,534 L1146,534 L1146,519 L1174,519 Z M1050,500 L1050,516 L1022,516 L1022,500 L1050,500 Z M1081,500 L1081,516 L1053,516 L1053,500 L1081,500 Z M1112,500 L1112,516 L1084,516 L1084,500 L1112,500 Z M1143,500 L1143,516 L1115,516 L1115,500 L1143,500 Z M1174,500 L1174,516 L1146,516 L1146,500 L1174,500 Z" id="grid-view"></path>
        </g>
    </g>
</svg>