<?xml version="1.0" encoding="UTF-8"?>
<svg width="24px" height="24px" viewBox="0 0 24 24" version="1.1" xmlns="http://www.w3.org/2000/svg" xmlns:xlink="http://www.w3.org/1999/xlink">
    <title>Icon/leader</title>
    <g id="Icon/leader" stroke="none" stroke-width="1" fill="none" fill-rule="evenodd">
        <path d="M3.63496254,9.21546152 C3.0906278,9.15731465 2.60104072,8.86576839 2.29907996,8.41995121 C2.07966376,8.10683004 1.97586667,7.73019944 2.00473295,7.35190497 C2.05830535,6.54337166 2.67262795,5.87599988 3.49063196,5.73769271 C4.30863597,5.59938553 5.11718939,6.02617907 5.44632875,6.77000391 C5.62708623,7.18668579 5.62708623,7.65707503 5.44632875,8.07375691 C5.2878342,8.47151207 5.17462382,8.58936544 4.54064564,9.06077896 L7.87657841,14.1358401 L11.650258,7.09410071 C11.0683207,6.97360764 10.5835335,6.58300239 10.3521122,6.04815197 C10.1868358,5.67201432 10.1706962,5.24935245 10.3068281,4.86225235 C10.5431891,4.07129285 11.3140151,3.54929792 12.1559311,3.6100602 C12.9400394,3.68642368 13.5884127,4.23936625 13.7710659,4.98747157 C13.9649555,5.90925402 13.3943929,6.82015399 12.4653728,7.0720032 L16.0730105,14.1284742 L19.3636591,9.01658394 C18.5680528,8.61263584 18.1973587,7.69959268 18.4935474,6.87344333 C18.7897362,6.04729398 19.6628402,5.55898176 20.5429409,5.72725245 C21.4230416,5.89552313 22.042808,6.66926442 21.9976875,7.54341671 C21.9442069,8.43447364 21.2262324,9.15089098 20.3146264,9.22282735 L20.3146264,9.38487575 C20.3146264,11.8229675 20.3146264,14.2536934 20.3146264,16.6917852 C20.3161513,16.7861435 20.3507823,16.8771385 20.412742,16.9495895 C20.8231817,17.4351375 20.8509765,18.1283676 20.4806683,18.6437318 C20.3702406,18.7781496 20.2105306,18.8653305 20.0353741,18.8868044 C19.0164806,19.0267553 17.9975871,19.1814378 16.9786936,19.2992912 C15.9598001,19.4171446 15.1522327,19.4760713 14.2390022,19.5423638 C12.7307534,19.6262296 11.2188355,19.6262296 9.7105867,19.5423638 C8.42665255,19.4921875 7.14661822,19.3716892 5.87652822,19.1814378 C5.21990797,19.085682 4.57083508,18.9678286 3.92176219,18.857341 C3.59597362,18.8281948 3.30743509,18.6401109 3.15506404,18.3575689 C3.00269298,18.0750268 3.00719484,17.7364207 3.16702627,17.4578322 C3.27623181,17.2697529 3.399858,17.0900048 3.53684687,16.9201261 C3.57938302,16.8641759 3.60547727,16.7979626 3.61232046,16.7286144 C3.61232046,14.2610593 3.61232046,11.80087 3.61232046,9.36277824 C3.62365938,9.31429941 3.63122829,9.26505362 3.63496254,9.21546152 Z" id="Path" fill="#000000"></path>
    </g>
</svg>