<?xml version="1.0" encoding="UTF-8"?>
<svg width="24px" height="24px" viewBox="0 0 24 24" version="1.1" xmlns="http://www.w3.org/2000/svg" xmlns:xlink="http://www.w3.org/1999/xlink">
    <title>Icon/participation</title>
    <g id="Icon/participation" stroke="none" stroke-width="1" fill="none" fill-rule="evenodd">
        <path d="M20,3 C21.1,3 22,3.9 22,5 L22,5 L22,17 C22,18.1 21.1,19 20,19 L20,19 L6,19 L2,23 L2,5 C2,3.9 2.9,3 4,3 L4,3 Z M20,5 L4,5 L4,19 L6,17 L20,17 L20,15.5454545 L15.9090909,15.5454545 L15.9090909,13.8409091 C15.9090909,12.8318182 15.3568182,12.0613636 14.5659091,11.4886364 C14.8045455,11.4681818 15.0295455,11.4545455 15.2272727,11.4545455 C16.8159091,11.4545455 20,12.2522727 20,13.8409091 L20,13.8409091 L20,5 Z M9.77272727,11.4545455 C11.3613636,11.4545455 14.5454545,12.2522727 14.5454545,13.8409091 L14.5454545,13.8409091 L14.5454545,15.5454545 L5,15.5454545 L5,13.8409091 C5,12.2522727 8.18409091,11.4545455 9.77272727,11.4545455 Z M15.2272727,6 C16.3590909,6 17.2659091,6.91363636 17.2659091,8.04545455 C17.2659091,9.17727273 16.3590909,10.0909091 15.2272727,10.0909091 C14.0954545,10.0909091 13.1818182,9.17727273 13.1818182,8.04545455 C13.1818182,6.91363636 14.0954545,6 15.2272727,6 Z M9.77272727,6 C10.9045455,6 11.8113636,6.91363636 11.8113636,8.04545455 C11.8113636,9.17727273 10.9045455,10.0909091 9.77272727,10.0909091 C8.64090909,10.0909091 7.72727273,9.17727273 7.72727273,8.04545455 C7.72727273,6.91363636 8.64090909,6 9.77272727,6 Z" id="Combined-Shape" fill="#000000"></path>
    </g>
</svg>