<?xml version="1.0" encoding="UTF-8"?>
<svg width="24px" height="24px" viewBox="0 0 24 24" version="1.1" xmlns="http://www.w3.org/2000/svg" xmlns:xlink="http://www.w3.org/1999/xlink">
    <title>Icon/share_screen</title>
    <g id="Icon/share_screen" stroke="none" stroke-width="1" fill="none" fill-rule="evenodd">
        <g id="screen_share-24px">
            <polygon id="Path" points="0 0 24 0 24 24 0 24"></polygon>
            <path d="M20.8,3.25 C22.01,3.25 23,4.229 23,5.45 L23,5.45 L22.989,16.45 C22.989,17.66 22.01,18.65 20.8,18.65 L20.8,18.65 L16.4,18.65 L16.4,20.35 C16.4,20.6261424 16.1761424,20.85 15.9,20.85 L15.9,20.85 L8.1,20.85 C7.82385763,20.85 7.6,20.6261424 7.6,20.35 L7.6,20.35 L7.6,18.65 L3.2,18.65 C1.979,18.65 1,17.66 1,16.45 L1,16.45 L1,5.45 C1,4.229 1.979,3.25 3.2,3.25 L3.2,3.25 Z M20.8,5.45 L3.2,5.45 L3.2,16.45 L20.8,16.461 L20.8,5.45 Z M12,6.57407407 L16.0740741,10.6481481 L14.9251852,11.797037 L12.8148148,9.69481481 L12.8148148,15.5740741 L11.1851852,15.5740741 L11.1851852,9.69481481 L9.07481481,11.797037 L7.92592593,10.6481481 L12,6.57407407 Z" id="Combined-Shape" fill="#000000"></path>
        </g>
    </g>
</svg>