<?xml version="1.0" encoding="UTF-8"?>
<svg width="92px" height="92px" viewBox="0 0 92 92" version="1.1" xmlns="http://www.w3.org/2000/svg" xmlns:xlink="http://www.w3.org/1999/xlink">
    <title>logo/symbol</title>
    <defs>
        <linearGradient x1="-0.0501449093%" y1="50.0613937%" x2="99.9989247%" y2="50.0613937%" id="linearGradient-1">
            <stop stop-color="#FFA900" offset="0%"></stop>
            <stop stop-color="#FF8B00" offset="100%"></stop>
        </linearGradient>
        <path d="M54.5373137,1.04060437e-13 C58.840189,1.03270011e-13 62.3283586,3.48816958 62.3283586,7.79104482 L62.3283586,47.2656719 C62.3283586,51.5685471 58.840189,55.0567167 54.5373137,55.0567167 L40.722,55.056 L44.0982502,69.2232374 C44.328806,70.1908828 44.0829086,71.2058637 43.445621,71.9587281 L43.3030998,72.1159315 C42.1505338,73.3035585 40.2820686,73.3765658 39.0420175,72.3148129 L38.8963138,72.1819544 L21.25,55.056 L7.79104482,55.0567167 C3.48816958,55.0567167 -2.40248941e-13,51.5685471 -2.39887713e-13,47.2656719 L-2.39887713e-13,7.79104482 C-2.41302842e-13,3.48816958 3.48816958,1.03962684e-13 7.79104482,1.04060437e-13 L54.5373137,1.04060437e-13 Z M85.6948586,5.54053853 C86.0404734,6.20607375 86.220896,6.94499146 86.220896,7.69491596 L86.220896,47.1545495 C86.220896,49.7362747 84.1279942,51.8291764 81.5462691,51.8291764 C80.7592642,51.8291764 79.9849976,51.630479 79.2952476,51.2515043 L67.3489789,44.6877738 C65.8542216,43.8664978 64.9253735,42.2963376 64.9253735,40.590819 L64.9253735,13.8986563 C64.9253735,12.1538142 65.8971286,10.5542055 67.445623,9.75006681 L79.3918917,3.5463265 C81.6830944,2.3564967 84.5050288,3.24933584 85.6948586,5.54053853 Z" id="path-2"></path>
    </defs>
    <g id="logo/symbol" stroke="none" stroke-width="1" fill="none" fill-rule="evenodd">
        <g id="Group-2-Copy" transform="translate(3.000000, 9.000000)">
            <g id="Path-9">
                <mask id="mask-3" fill="white">
                    <use xlink:href="#path-2"></use>
                </mask>
                <use id="Mask" fill="url(#linearGradient-1)" fill-rule="nonzero" xlink:href="#path-2"></use>
                <path d="M-4.67462689,46.1682958 C4.91052544,37.0292607 14.0236772,32.98496 22.6648282,34.0353935 C35.6265549,35.6110438 46.2238305,47.0303697 65.7858365,41.1748864 C85.3478425,35.3194032 98.3561509,54.364704 92.6627077,69.3430401 C88.8670789,79.3285975 63.443336,81.7702623 16.391479,76.6680347 L-4.67462689,46.1682958 Z" fill-opacity="0.3" fill="#FF4B00" fill-rule="nonzero" mask="url(#mask-3)"></path>
            </g>
            <path d="M18.4253016,31.1247046 C20.2078926,31.1247046 21.5448359,29.6849196 21.5448359,27.8337673 C21.5448359,25.9826151 20.2078926,24.54283 18.4253016,24.54283 C16.6084299,24.54283 15.2714867,25.9826151 15.2714867,27.8337673 C15.2714867,29.6849196 16.6084299,31.1247046 18.4253016,31.1247046 Z M31.3833673,31.1247046 C33.200239,31.1247046 34.5371823,29.6849196 34.5371823,27.8337673 C34.5371823,25.9826151 33.200239,24.54283 31.3833673,24.54283 C29.6007763,24.54283 28.263833,25.9826151 28.263833,27.8337673 C28.263833,29.6849196 29.6007763,31.1247046 31.3833673,31.1247046 Z M44.3757137,31.1247046 C46.1583047,31.1247046 47.5295286,29.6849196 47.5295286,27.8337673 C47.5295286,25.9826151 46.1583047,24.54283 44.3757137,24.54283 C42.5931226,24.54283 41.2561793,25.9826151 41.2561793,27.8337673 C41.2561793,29.6849196 42.5931226,31.1247046 44.3757137,31.1247046 Z" id="…" fill="#FFFFFF" fill-rule="nonzero"></path>
        </g>
    </g>
</svg>