<?xml version="1.0" standalone="no"?>
<!DOCTYPE svg PUBLIC "-//W3C//DTD SVG 20010904//EN"
 "http://www.w3.org/TR/2001/REC-SVG-20010904/DTD/svg10.dtd">
<svg version="1.0" xmlns="http://www.w3.org/2000/svg"
 width="260.000000pt" height="260.000000pt" viewBox="0 0 260.000000 260.000000"
 preserveAspectRatio="xMidYMid meet">
<metadata>
Created by potrace 1.11, written by Peter Selinger 2001-2013
</metadata>
<g transform="translate(0.000000,260.000000) scale(0.100000,-0.100000)"
fill="#000000" stroke="none">
<path d="M269 2339 c-89 -13 -161 -83 -177 -172 -4 -23 -7 -303 -7 -622 1
-562 2 -581 21 -625 28 -62 89 -111 154 -125 8 -2 107 -4 220 -4 l205 -1 130
-126 c72 -69 187 -181 256 -249 132 -129 165 -148 211 -124 13 7 28 19 35 28
15 19 17 77 4 117 -18 55 -83 345 -79 349 2 2 101 5 218 5 181 1 221 4 252 19
49 22 85 57 111 106 21 39 21 49 23 635 1 472 -2 605 -13 641 -16 56 -78 123
-131 140 -27 9 -212 12 -713 13 -372 1 -696 -2 -720 -5z"/>
<path d="M2180 2169 c-213 -110 -216 -112 -240 -152 -19 -30 -20 -53 -20 -435
0 -439 1 -450 56 -489 65 -45 363 -202 396 -208 47 -9 101 16 128 60 19 31 20
48 20 621 0 541 -1 592 -18 623 -20 39 -73 71 -117 71 -18 -1 -101 -37 -205
-91z"/>
</g>
</svg>
